<svg width="80" height="80" viewBox="0 0 80 80" fill="none" xmlns="http://www.w3.org/2000/svg">
<path opacity="0.8" d="M29.3333 20L37.3333 15.3333V42.6667L29.3333 47.3333V20Z" fill="#0891B2"/>
<path opacity="0.9" d="M25.3333 22L33.3333 17.3333V44.6667L25.3333 49.3333V22Z" fill="#06B6D4"/>
<path d="M21.3333 24L29.3333 19.3333V46.6667L21.3333 51.3333V24Z" fill="#22D3EE"/>
<path d="M17.3333 26L25.3333 21.3333V48.6667L17.3333 53.3333V26Z" fill="#67E8F9"/>
<path d="M13.3333 28L21.3333 23.3333V50.6667L13.3333 55.3333V28Z" fill="#A5F3FC"/>
<path d="M9.33334 30L17.3333 25.3333V52.6667L9.33334 57.3333V30Z" fill="#E0F2FE"/>
<path d="M9.33334 30L17.3333 25.3333L29.3333 19.3333L21.3333 24L9.33334 30Z" fill="#F0FDFF"/>
<path d="M17.3333 25.3333L25.3333 21.3333L37.3333 15.3333L29.3333 20L17.3333 25.3333Z" fill="#CFFAFE"/>
<path d="M9.33334 57.3333L33.3333 70.6667L56 58.6667L32 45.3333L9.33334 57.3333Z" fill="url(#paint0_linear_5_2)"/>
<path d="M9.33334 57.3333L33.3333 70.6667V74.6667L9.33334 61.3333V57.3333Z" fill="url(#paint1_linear_5_2)"/>
<path d="M33.3333 70.6667L56 58.6667V62.6667L33.3333 74.6667V70.6667Z" fill="url(#paint2_linear_5_2)"/>
<path d="M56 58.6667L64 54.6667V68L56 72V58.6667Z" fill="url(#paint3_linear_5_2)"/>
<path d="M56 58.6667L64 54.6667L72 58.6667L64 62.6667L56 58.6667Z" fill="#FB923C"/>
<path d="M64 54.6667L72 58.6667V72L64 68V54.6667Z" fill="#F97316"/>
<path opacity="0.8" d="M39.3333 14.6667H37.3333V16.6667H39.3333V14.6667Z" fill="#A78BFA"/>
<path opacity="0.7" d="M42.9333 17.3333H41.3333V18.9333H42.9333V17.3333Z" fill="#C4B5FD"/>
<path opacity="0.6" d="M46 19.3333H44.6667V20.6667H46V19.3333Z" fill="#8B5CF6"/>
<path opacity="0.7" d="M49.8667 16H48V17.8667H49.8667V16Z" fill="#DDD6FE"/>
<path d="M41.3333 34L39.3333 35.3333V39.3333L41.3333 41.3333L43.3333 39.3333V35.3333L41.3333 34Z" fill="url(#paint4_linear_5_2)"/>
<path d="M41.3333 38L40 38.6667L41.3333 40L42.6667 38.6667L41.3333 38Z" fill="url(#paint5_linear_5_2)"/>
<path d="M41.3333 46.6667L38.6667 50H44L41.3333 46.6667Z" fill="url(#paint6_linear_5_2)"/>
<path d="M41.3333 47.3333L40 49.3333H42.6667L41.3333 47.3333Z" fill="url(#paint7_linear_5_2)"/>
<path d="M52.6667 19.3333H48V22.6667H52.6667V19.3333Z" fill="#6366F1" stroke="#E0E7FF" stroke-width="3"/>
<path d="M53.3333 20.6667H50.6667V22.6667H53.3333V20.6667Z" fill="#4F46E5"/>
<path d="M61.3333 20.6667H58.6667V23.3333H61.3333V20.6667Z" fill="#818CF8" stroke="#E0E7FF" stroke-width="2"/>
<path opacity="0.9" d="M65.3333 26H69.3333V28H71.3333V30H67.3333V28H65.3333V26Z" fill="#A78BFA"/>
<path opacity="0.8" d="M54.6667 33.3333H56.6667V31.3333H60.6667V33.3333H62.6667V35.3333H54.6667V33.3333Z" fill="#8B5CF6"/>
<path opacity="0.85" d="M50.6667 42H54.6667V44H56.6667V46H50.6667V42Z" fill="#7C3AED"/>
<path opacity="0.8" d="M69.3333 56.6667C71.9107 56.6667 74 54.5773 74 52C74 49.4227 71.9107 47.3333 69.3333 47.3333C66.756 47.3333 64.6667 49.4227 64.6667 52C64.6667 54.5773 66.756 56.6667 69.3333 56.6667Z" stroke="#F472B6" stroke-width="8"/>
<path opacity="0.9" d="M69.3333 54.6667C70.8061 54.6667 72 53.4728 72 52C72 50.5273 70.8061 49.3333 69.3333 49.3333C67.8606 49.3333 66.6667 50.5273 66.6667 52C66.6667 53.4728 67.8606 54.6667 69.3333 54.6667Z" stroke="#FBBF24" stroke-width="6"/>
<path opacity="0.7" d="M72 44.9333C72.8837 44.9333 73.6 44.217 73.6 43.3333C73.6 42.4497 72.8837 41.7333 72 41.7333C71.1163 41.7333 70.4 42.4497 70.4 43.3333C70.4 44.217 71.1163 44.9333 72 44.9333Z" fill="#F472B6"/>
<path opacity="0.9" d="M72 44.1333C72.4418 44.1333 72.8 43.7752 72.8 43.3333C72.8 42.8915 72.4418 42.5333 72 42.5333C71.5582 42.5333 71.2 42.8915 71.2 43.3333C71.2 43.7752 71.5582 44.1333 72 44.1333Z" fill="#FBBF24"/>
<path opacity="0.6" d="M44 43.0667C44.5891 43.0667 45.0667 42.5891 45.0667 42C45.0667 41.4109 44.5891 40.9333 44 40.9333C43.4109 40.9333 42.9333 41.4109 42.9333 42C42.9333 42.5891 43.4109 43.0667 44 43.0667Z" fill="#EC4899"/>
<path opacity="0.7" d="M42.6667 74C43.403 74 44 73.4031 44 72.6667C44 71.9303 43.403 71.3333 42.6667 71.3333C41.9303 71.3333 41.3333 71.9303 41.3333 72.6667C41.3333 73.4031 41.9303 74 42.6667 74Z" fill="#F0ABFC"/>
<path opacity="0.7" d="M68.6667 77.8667C69.3294 77.8667 69.8667 77.3294 69.8667 76.6667C69.8667 76.0039 69.3294 75.4667 68.6667 75.4667C68.0039 75.4667 67.4667 76.0039 67.4667 76.6667C67.4667 77.3294 68.0039 77.8667 68.6667 77.8667Z" fill="#FCA5A5"/>
<path opacity="0.6" d="M66.4 35.3333H65.3333V36.4H66.4V35.3333Z" fill="#C4B5FD"/>
<path opacity="0.5" d="M54.8 38H54V38.8H54.8V38Z" fill="#DDD6FE"/>
<path opacity="0.6" d="M46.9333 62.6667H46V63.6H46.9333V62.6667Z" fill="#FBCFE8"/>
<path opacity="0.9" d="M73.3333 65.3333H71.3333V72H73.3333V65.3333Z" fill="url(#paint8_linear_5_2)"/>
<path opacity="0.7" d="M72.6667 66H72V71.3333H72.6667V66Z" fill="#FB923C"/>
<defs>
<linearGradient id="paint0_linear_5_2" x1="9.33334" y1="45.3333" x2="9.33334" y2="2578.67" gradientUnits="userSpaceOnUse">
<stop stop-color="#E0F2FE"/>
<stop offset="1" stop-color="#7DD3FC"/>
</linearGradient>
<linearGradient id="paint1_linear_5_2" x1="9.33334" y1="57.3333" x2="9.33334" y2="1790.67" gradientUnits="userSpaceOnUse">
<stop stop-color="#8B5CF6"/>
<stop offset="1" stop-color="#6D28D9"/>
</linearGradient>
<linearGradient id="paint2_linear_5_2" x1="33.3333" y1="58.6667" x2="33.3333" y2="1658.67" gradientUnits="userSpaceOnUse">
<stop stop-color="#EC4899"/>
<stop offset="1" stop-color="#BE185D"/>
</linearGradient>
<linearGradient id="paint3_linear_5_2" x1="56" y1="54.6667" x2="56" y2="1788" gradientUnits="userSpaceOnUse">
<stop stop-color="#F97316"/>
<stop offset="1" stop-color="#EA580C"/>
</linearGradient>
<linearGradient id="paint4_linear_5_2" x1="39.3333" y1="34" x2="39.3333" y2="767.333" gradientUnits="userSpaceOnUse">
<stop stop-color="#8B5CF6"/>
<stop offset="1" stop-color="#6D28D9"/>
</linearGradient>
<linearGradient id="paint5_linear_5_2" x1="40" y1="38" x2="40" y2="238" gradientUnits="userSpaceOnUse">
<stop stop-color="#F97316"/>
<stop offset="1" stop-color="#EA580C"/>
</linearGradient>
<linearGradient id="paint6_linear_5_2" x1="38.6667" y1="46.6667" x2="38.6667" y2="380" gradientUnits="userSpaceOnUse">
<stop stop-color="#3B82F6"/>
<stop offset="1" stop-color="#1E40AF"/>
</linearGradient>
<linearGradient id="paint7_linear_5_2" x1="40" y1="47.3333" x2="40" y2="247.333" gradientUnits="userSpaceOnUse">
<stop stop-color="#F97316"/>
<stop offset="1" stop-color="#EA580C"/>
</linearGradient>
<linearGradient id="paint8_linear_5_2" x1="71.3333" y1="65.3333" x2="71.3333" y2="732" gradientUnits="userSpaceOnUse">
<stop stop-color="#F97316"/>
<stop offset="1" stop-color="#EA580C"/>
</linearGradient>
</defs>
</svg>
